<?xml version="1.0" encoding="UTF-8"?>
<svg xmlns="http://www.w3.org/2000/svg" width="129" height="33" viewBox="0 0 129 33" fill="none">
  <path d="M39.4125 12.3804L39.4125 12.3804L39.4141 12.3786C39.9722 11.7688 40.6652 11.4655 41.5042 11.4655H49.9034C50.3443 11.4655 50.7018 11.108 50.7018 10.667C50.7018 10.2261 50.3443 9.86858 49.9034 9.86858H41.5042C40.1722 9.86858 39.0523 10.2883 38.1563 11.1326L38.1563 11.1326L38.155 11.1339C37.2776 11.9798 36.8402 13.0537 36.8402 14.3428L36.8402 14.3433L36.8673 22.3099C36.8689 22.7798 37.2502 23.1598 37.7201 23.1598C38.1911 23.1598 38.5729 22.778 38.5729 22.307V18.9593L49.8132 18.9858C50.2549 18.9868 50.6135 18.6291 50.6135 18.1874C50.6135 17.7471 50.2572 17.39 49.8169 17.3889L38.5729 17.3624V14.4847C38.5729 13.6743 38.8515 12.9754 39.4125 12.3804ZM75.0956 12.3804L75.0972 12.3786C75.6553 11.7688 76.3483 11.4655 77.1873 11.4655H85.5865C86.0274 11.4655 86.3849 11.108 86.3849 10.667C86.3849 10.2261 86.0274 9.86858 85.5865 9.86858H77.1873C75.8364 9.86858 74.7155 10.2879 73.8381 11.1339C72.9607 11.9798 72.5233 13.0537 72.5233 14.3428V18.6856C72.5233 19.9747 72.9607 21.0486 73.8381 21.8945C74.7155 22.7405 75.8364 23.1598 77.1873 23.1598H85.5865C86.0274 23.1598 86.3849 22.8023 86.3849 22.3614C86.3849 21.9204 86.0274 21.5629 85.5865 21.5629H77.1873C76.3471 21.5629 75.6539 21.2681 75.0964 20.6772C74.5344 20.0627 74.256 19.3538 74.256 18.5437V17.5401L85.4963 17.5666C85.938 17.5676 86.2966 17.2098 86.2966 16.7681C86.2966 16.3279 85.9403 15.9707 85.5 15.9697L74.256 15.9432V14.4847C74.256 13.6743 74.5345 12.9754 75.0956 12.3804ZM90.1063 11.3004L90.105 11.3016C89.2068 12.1283 88.7581 13.1841 88.7581 14.4563V22.2798C88.7581 22.7501 89.1393 23.1314 89.6097 23.1314C90.08 23.1314 90.4613 22.7501 90.4613 22.2798V14.4563C90.4613 13.6698 90.7556 13.0124 91.3507 12.4744C91.9487 11.9339 92.6561 11.6642 93.4809 11.6642H100.046C100.871 11.6642 101.578 11.9339 102.176 12.4744C102.771 13.0124 103.065 13.6698 103.065 14.4563V22.2798C103.065 22.7501 103.447 23.1314 103.917 23.1314C104.387 23.1314 104.769 22.7501 104.769 22.2798V14.655C104.769 13.3639 104.31 12.2721 103.396 11.39C102.5 10.5072 101.38 10.0673 100.046 10.0673H93.4809C92.15 10.0673 91.0216 10.4768 90.1063 11.3004ZM68.1751 10.6918V13.9275H55.5709V10.6918C55.5709 10.2215 55.1897 9.8402 54.7193 9.8402C54.249 9.8402 53.8677 10.2215 53.8677 10.6918V22.2798C53.8677 22.7501 54.249 23.1314 54.7193 23.1314C55.1897 23.1314 55.5709 22.7501 55.5709 22.2798V15.5244H68.1751V22.2798C68.1751 22.7501 68.5564 23.1314 69.0267 23.1314C69.4971 23.1314 69.8784 22.7501 69.8784 22.2798V10.6918C69.8784 10.2215 69.4971 9.8402 69.0267 9.8402C68.5564 9.8402 68.1751 10.2215 68.1751 10.6918ZM107.987 10.8096V22.162C107.987 22.6974 108.421 23.1314 108.956 23.1314C109.492 23.1314 109.926 22.6974 109.926 22.162V10.8096C109.926 10.2742 109.492 9.8402 108.956 9.8402C108.421 9.8402 107.987 10.2742 107.987 10.8096ZM127.24 23.1314H127.311C127.765 23.1314 128.136 22.7708 128.15 22.3173C128.158 22.0568 128.044 21.8076 127.842 21.6428L121.687 16.6132L127.844 11.5559C128.044 11.3908 128.158 11.142 128.15 10.8821C128.136 10.4282 127.765 10.0673 127.31 10.0673H127.24C127.028 10.0673 126.823 10.1408 126.66 10.2752L120.346 15.4699L114.032 10.2752C113.869 10.1408 113.664 10.0673 113.452 10.0673H113.381C112.927 10.0673 112.555 10.4282 112.542 10.8821C112.534 11.142 112.647 11.3908 112.848 11.5559L119.004 16.6132L112.85 21.6428C112.648 21.8076 112.534 22.0568 112.542 22.3173C112.555 22.7708 112.927 23.1314 113.38 23.1314H113.452C113.664 23.1314 113.869 23.0579 114.032 22.9235L120.346 17.7288L126.66 22.9235C126.823 23.0579 127.028 23.1314 127.24 23.1314Z" fill="white" stroke="white" stroke-width="0.319599"></path>
  <path fill-rule="evenodd" clip-rule="evenodd" d="M1.35319 7.90201C1.14876 7.96424 1 8.15427 1 8.37906V16.3619V24.0035C1 24.2788 1.22322 24.5021 1.49857 24.5021C1.77392 24.5021 1.99713 24.2788 1.99713 24.0035V16.3619V14.1347L13.2234 21.878L13.2633 31.4589C13.2642 31.685 13.4155 31.8753 13.622 31.9355C13.7649 31.9998 13.9357 31.9959 14.0808 31.9101L26.7553 24.4112C26.9922 24.271 27.0707 23.9652 26.9305 23.7282C26.7903 23.4912 26.4845 23.4128 26.2475 23.553L14.257 30.6472L14.2342 25.1542L26.6854 17.6354C26.9211 17.493 26.9968 17.1866 26.8545 16.9509C26.7121 16.7152 26.4057 16.6395 26.1699 16.7818L14.2293 23.9923L14.2004 17.0628L26.4418 9.65823C26.6069 9.55841 26.6933 9.37813 26.6813 9.19811C26.6909 9.02034 26.6046 8.84322 26.4417 8.74453L13.7935 1.08262C13.6616 0.995595 13.4924 0.974276 13.3396 1.03324C13.3112 1.04411 13.2838 1.05758 13.2577 1.07356L1.35319 7.90201ZM13.5114 2.07753L25.2709 9.20112L13.4432 16.3555C13.2796 16.4544 13.1932 16.6324 13.2034 16.8108C13.2027 16.8222 13.2023 16.8336 13.2024 16.8452L13.2183 20.6632L2.16449 13.0388C2.11219 13.0027 2.05543 12.978 1.99713 12.9641V8.68218L5.96153 6.40818L13.3129 10.9691C13.5469 11.1142 13.8542 11.0422 13.9994 10.8083C14.1446 10.5743 14.0726 10.2669 13.8386 10.1218L6.9443 5.84446L13.5114 2.07753Z" fill="white"></path>
  <path d="M1.35319 7.90201L1.47728 8.30973L1.52342 8.29569L1.56525 8.2717L1.35319 7.90201ZM1.99713 14.1347L2.23911 13.7839L1.57095 13.323V14.1347H1.99713ZM13.2234 21.878L13.6495 21.8762L13.6486 21.6536L13.4653 21.5271L13.2234 21.878ZM13.2633 31.4589L12.8371 31.4607L12.8371 31.4607L13.2633 31.4589ZM13.622 31.9355L13.7968 31.5468L13.7698 31.5347L13.7413 31.5264L13.622 31.9355ZM14.0808 31.9101L14.2978 32.2768L14.2978 32.2768L14.0808 31.9101ZM26.7553 24.4112L26.5382 24.0444L26.5382 24.0444L26.7553 24.4112ZM26.9305 23.7282L27.2973 23.5112L27.2973 23.5112L26.9305 23.7282ZM26.2475 23.553L26.0305 23.1862L26.0305 23.1862L26.2475 23.553ZM14.257 30.6472L13.8309 30.649L13.834 31.3927L14.4741 31.014L14.257 30.6472ZM14.2342 25.1542L14.0138 24.7893L13.807 24.9143L13.808 25.1559L14.2342 25.1542ZM26.6854 17.6354L26.4651 17.2705L26.4651 17.2705L26.6854 17.6354ZM26.8545 16.9509L26.4896 17.1712L26.4896 17.1712L26.8545 16.9509ZM26.1699 16.7818L26.3903 17.1466L26.3903 17.1466L26.1699 16.7818ZM14.2293 23.9923L13.8031 23.994L13.8063 24.7456L14.4496 24.3571L14.2293 23.9923ZM14.2004 17.0628L13.9799 16.6981L13.7733 16.8231L13.7743 17.0646L14.2004 17.0628ZM26.4418 9.65823L26.2213 9.29357L26.2213 9.29357L26.4418 9.65823ZM26.6813 9.19811L26.2558 9.17527L26.2544 9.20085L26.2561 9.22641L26.6813 9.19811ZM26.4417 8.74453L26.6625 8.38001L26.6625 8.38001L26.4417 8.74453ZM13.7935 1.08262L13.5589 1.43836L13.5657 1.44288L13.5727 1.44714L13.7935 1.08262ZM13.3396 1.03324L13.492 1.43125L13.4931 1.43084L13.3396 1.03324ZM13.2577 1.07356L13.4698 1.44339L13.4801 1.43712L13.2577 1.07356ZM25.2709 9.20112L25.4915 9.56578L26.0939 9.20139L25.4918 8.8366L25.2709 9.20112ZM13.5114 2.07753L13.7322 1.71302L13.5173 1.58283L13.2994 1.70785L13.5114 2.07753ZM13.4432 16.3555L13.6638 16.7201L13.6638 16.7201L13.4432 16.3555ZM13.2034 16.8108L13.6287 16.838L13.6304 16.8123L13.6289 16.7866L13.2034 16.8108ZM13.2024 16.8452L12.7762 16.8469L12.7762 16.847L13.2024 16.8452ZM13.2183 20.6632L12.9763 21.014L13.6479 21.4772L13.6445 20.6614L13.2183 20.6632ZM2.16449 13.0388L2.40647 12.688L2.40647 12.688L2.16449 13.0388ZM1.99713 12.9641H1.57095V13.3007L1.89834 13.3787L1.99713 12.9641ZM1.99713 8.68218L1.78508 8.31249L1.57095 8.43532V8.68218H1.99713ZM5.96153 6.40818L6.18621 6.04604L5.97009 5.91195L5.74948 6.0385L5.96153 6.40818ZM13.3129 10.9691L13.5376 10.6069L13.5376 10.6069L13.3129 10.9691ZM13.9994 10.8083L14.3615 11.0329L14.3615 11.0329L13.9994 10.8083ZM13.8386 10.1218L13.6139 10.4839L13.6139 10.4839L13.8386 10.1218ZM6.9443 5.84446L6.73225 5.47478L6.11278 5.83011L6.71962 6.20661L6.9443 5.84446ZM1.42618 8.37906C1.42618 8.34706 1.44727 8.31887 1.47728 8.30973L1.22911 7.4943C0.850247 7.6096 0.573817 7.96149 0.573817 8.37906H1.42618ZM1.42618 16.3619V8.37906H0.573817V16.3619H1.42618ZM1.42618 24.0035V16.3619H0.573817V24.0035H1.42618ZM1.49857 24.0759C1.45859 24.0759 1.42618 24.0435 1.42618 24.0035H0.573817C0.573817 24.5142 0.987842 24.9282 1.49857 24.9282V24.0759ZM1.57095 24.0035C1.57095 24.0435 1.53854 24.0759 1.49857 24.0759V24.9282C2.00929 24.9282 2.42332 24.5142 2.42332 24.0035H1.57095ZM1.57095 16.3619V24.0035H2.42332V16.3619H1.57095ZM1.57095 14.1347V16.3619H2.42332V14.1347H1.57095ZM13.4653 21.5271L2.23911 13.7839L1.75515 14.4855L12.9814 22.2288L13.4653 21.5271ZM13.6895 31.4571L13.6495 21.8762L12.7972 21.8797L12.8371 31.4607L13.6895 31.4571ZM13.7413 31.5264C13.7111 31.5176 13.6896 31.4893 13.6895 31.4571L12.8371 31.4607C12.8389 31.8806 13.1199 32.233 13.5027 32.3447L13.7413 31.5264ZM13.8638 31.5433C13.843 31.5555 13.8187 31.5567 13.7968 31.5468L13.4472 32.3242C13.711 32.4429 14.0284 32.4362 14.2978 32.2768L13.8638 31.5433ZM26.5382 24.0444L13.8638 31.5433L14.2978 32.2768L26.9723 24.778L26.5382 24.0444ZM26.5637 23.9452C26.584 23.9796 26.5726 24.024 26.5382 24.0444L26.9723 24.778C27.4118 24.5179 27.5573 23.9507 27.2973 23.5112L26.5637 23.9452ZM26.4645 23.9198C26.4989 23.8994 26.5433 23.9108 26.5637 23.9452L27.2973 23.5112C27.0372 23.0716 26.47 22.9261 26.0305 23.1862L26.4645 23.9198ZM14.4741 31.014L26.4645 23.9198L26.0305 23.1862L14.04 30.2804L14.4741 31.014ZM13.808 25.1559L13.8309 30.649L14.6832 30.6454L14.6603 25.1524L13.808 25.1559ZM26.4651 17.2705L14.0138 24.7893L14.4545 25.519L26.9057 18.0002L26.4651 17.2705ZM26.4896 17.1712C26.5103 17.2054 26.4993 17.2499 26.4651 17.2705L26.9057 18.0002C27.3429 17.7362 27.4833 17.1678 27.2193 16.7306L26.4896 17.1712ZM26.3903 17.1466C26.4245 17.126 26.469 17.1369 26.4896 17.1712L27.2193 16.7306C26.9553 16.2934 26.3868 16.153 25.9496 16.417L26.3903 17.1466ZM14.4496 24.3571L26.3903 17.1466L25.9496 16.417L14.009 23.6274L14.4496 24.3571ZM13.7743 17.0646L13.8031 23.994L14.6555 23.9905L14.6266 17.061L13.7743 17.0646ZM26.2213 9.29357L13.9799 16.6981L14.421 17.4275L26.6624 10.0229L26.2213 9.29357ZM26.2561 9.22641C26.2579 9.25374 26.2447 9.27939 26.2213 9.29357L26.6624 10.0229C26.969 9.83744 27.1287 9.50252 27.1066 9.16981L26.2561 9.22641ZM26.2209 9.10904C26.2441 9.12307 26.2572 9.14823 26.2558 9.17527L27.1069 9.22096C27.1245 8.89244 26.9652 8.56336 26.6625 8.38001L26.2209 9.10904ZM13.5727 1.44714L26.2209 9.10904L26.6625 8.38001L14.0144 0.718101L13.5727 1.44714ZM13.4931 1.43084C13.514 1.42276 13.539 1.42525 13.5589 1.43836L14.0282 0.726878C13.7843 0.565943 13.4708 0.525796 13.1862 0.635647L13.4931 1.43084ZM13.4801 1.43712C13.4838 1.43485 13.4878 1.43287 13.492 1.43125L13.1872 0.635233C13.1347 0.655342 13.0838 0.68031 13.0353 0.709994L13.4801 1.43712ZM1.56525 8.2717L13.4697 1.44324L13.0456 0.703876L1.14114 7.53233L1.56525 8.2717ZM25.4918 8.8366L13.7322 1.71302L13.2906 2.44205L25.0501 9.56564L25.4918 8.8366ZM13.6638 16.7201L25.4915 9.56578L25.0504 8.83646L13.2226 15.9908L13.6638 16.7201ZM13.6289 16.7866C13.6274 16.7595 13.6405 16.7342 13.6638 16.7201L13.2226 15.9908C12.9187 16.1746 12.7591 16.5053 12.7779 16.8351L13.6289 16.7866ZM13.6286 16.8434C13.6286 16.8415 13.6286 16.8397 13.6287 16.838L12.7781 16.7837C12.7768 16.8047 12.7761 16.8258 12.7762 16.8469L13.6286 16.8434ZM13.6445 20.6614L13.6286 16.8434L12.7762 16.847L12.7921 20.6649L13.6445 20.6614ZM1.92251 13.3896L12.9763 21.014L13.4603 20.3123L2.40647 12.688L1.92251 13.3896ZM1.89834 13.3787C1.90619 13.3806 1.91427 13.3839 1.92251 13.3896L2.40647 12.688C2.31011 12.6215 2.20467 12.5754 2.09593 12.5495L1.89834 13.3787ZM1.57095 8.68218V12.9641H2.42332V8.68218H1.57095ZM5.74948 6.0385L1.78508 8.31249L2.20919 9.05186L6.17358 6.77787L5.74948 6.0385ZM13.5376 10.6069L6.18621 6.04604L5.73685 6.77033L13.0882 11.3312L13.5376 10.6069ZM13.6372 10.5836C13.6162 10.6176 13.5716 10.628 13.5376 10.6069L13.0882 11.3312C13.5222 11.6005 14.0923 11.4669 14.3615 11.0329L13.6372 10.5836ZM13.6139 10.4839C13.6479 10.505 13.6583 10.5496 13.6372 10.5836L14.3615 11.0329C14.6308 10.599 14.4972 10.0289 14.0633 9.75962L13.6139 10.4839ZM6.71962 6.20661L13.6139 10.4839L14.0633 9.75962L7.16898 5.48231L6.71962 6.20661ZM13.2994 1.70785L6.73225 5.47478L7.15636 6.21414L13.7235 2.44722L13.2994 1.70785Z" fill="white"></path>
</svg>
